<?xml version="1.0" standalone="no"?>
<!DOCTYPE svg PUBLIC "-//W3C//DTD SVG 20010904//EN"
 "http://www.w3.org/TR/2001/REC-SVG-20010904/DTD/svg10.dtd">
<svg version="1.0" xmlns="http://www.w3.org/2000/svg"
 width="512.000000pt" height="512.000000pt" viewBox="0 0 512.000000 512.000000"
 preserveAspectRatio="xMidYMid meet">
<metadata>
Created by potrace 1.14, written by Peter Selinger 2001-2017
</metadata>
<g transform="translate(0.000000,512.000000) scale(0.100000,-0.100000)"
fill="#000000" stroke="none">
<path d="M1952 5099 c-86 -43 -98 -84 -97 -338 l1 -173 -31 -14 c-16 -7 -77
-33 -135 -59 -168 -73 -331 -173 -478 -291 l-53 -43 -75 44 c-42 25 -78 45
-82 45 -3 0 -13 6 -21 14 -9 8 -54 34 -102 59 -111 58 -177 56 -239 -6 -14
-14 -150 -243 -304 -508 -269 -467 -278 -485 -278 -536 0 -91 32 -124 227
-233 22 -12 70 -40 106 -61 l67 -38 -9 -46 c-34 -181 -40 -473 -14 -625 3 -14
7 -50 11 -80 l6 -55 -171 -98 c-96 -55 -179 -110 -190 -125 -51 -73 -48 -136
11 -235 17 -29 38 -65 48 -82 35 -62 212 -368 340 -590 73 -126 145 -239 158
-250 38 -29 86 -44 129 -39 24 3 101 41 210 103 l173 99 62 -50 c146 -118 391
-259 573 -330 l60 -23 1 -200 c1 -110 6 -211 12 -225 5 -14 22 -38 36 -53 54
-58 46 -57 649 -57 305 0 568 3 585 6 36 7 98 64 114 103 6 15 11 110 12 225
l1 200 100 41 c190 80 383 193 534 314 41 33 68 48 75 42 6 -5 29 -19 51 -31
22 -12 96 -54 164 -93 107 -62 131 -72 170 -71 43 1 85 17 122 46 19 15 561
951 576 994 21 62 -6 148 -61 188 -17 13 -74 47 -126 77 -52 30 -104 59 -115
66 -11 6 -35 19 -54 29 -37 19 -36 7 -13 179 9 68 9 438 -1 500 -4 28 -10 73
-13 100 l-6 50 169 96 c180 103 219 140 227 210 6 54 -10 90 -121 282 -58 100
-115 198 -126 217 -47 84 -282 489 -306 528 -17 28 -42 50 -74 66 -75 38 -106
30 -306 -84 l-174 -99 -51 43 c-52 44 -192 146 -201 146 -2 0 -28 15 -57 33
-74 47 -166 93 -283 141 l-100 42 -1 199 c-1 209 -6 234 -47 279 -53 56 -47
56 -659 56 -553 0 -564 0 -606 -21z m964 -507 c0 -166 2 -181 23 -217 30 -54
49 -65 174 -109 250 -85 443 -196 632 -361 168 -147 179 -147 418 -8 71 41
133 71 137 67 5 -5 57 -92 116 -194 103 -179 119 -206 165 -287 12 -21 33 -57
46 -81 14 -24 24 -44 22 -46 -2 -2 -65 -38 -139 -81 -74 -43 -146 -88 -158
-99 -48 -42 -66 -107 -51 -175 4 -20 10 -47 13 -61 3 -14 7 -36 10 -50 3 -14
8 -44 11 -67 3 -24 8 -64 11 -90 8 -62 8 -295 0 -350 -3 -24 -8 -62 -11 -85
-3 -24 -15 -85 -26 -136 -33 -160 -14 -193 183 -306 73 -42 139 -80 147 -85
11 -7 -8 -46 -89 -187 -56 -99 -114 -199 -128 -224 -14 -25 -32 -56 -41 -70
-9 -14 -25 -41 -36 -62 -10 -20 -26 -46 -35 -58 l-17 -22 -150 87 c-215 124
-234 123 -393 -16 -191 -166 -398 -285 -635 -365 -130 -44 -148 -55 -177 -114
-21 -42 -23 -57 -22 -218 l0 -172 -356 0 -356 0 0 178 c-1 166 -2 181 -23 218
-30 53 -49 65 -176 108 -96 32 -310 130 -370 168 -94 60 -195 136 -274 206
-147 128 -170 129 -384 6 l-150 -86 -18 23 c-10 13 -24 35 -31 49 -7 14 -38
68 -69 122 -31 53 -70 120 -87 150 -16 29 -58 102 -92 161 -34 59 -61 110 -59
111 2 2 20 13 39 24 242 137 271 157 296 204 22 43 23 90 4 174 -17 75 -21 97
-36 219 -8 64 -8 297 0 353 3 23 9 61 12 85 3 23 12 76 21 117 8 41 17 84 19
94 7 37 -18 104 -49 134 -26 24 -200 132 -212 132 -2 0 -20 11 -40 24 -20 14
-41 26 -47 28 -7 3 5 34 34 84 25 43 55 95 66 114 103 182 234 406 241 413 5
5 65 -23 138 -65 175 -100 195 -109 246 -103 47 6 91 33 157 97 150 144 405
294 629 368 127 43 153 56 179 94 30 45 38 98 36 269 l-1 147 357 0 356 0 0
-178z"/>
<path d="M2365 3690 c-383 -68 -724 -336 -860 -679 -12 -31 -26 -65 -30 -76
-10 -24 -6 -11 -35 -125 -30 -123 -34 -342 -7 -466 77 -364 294 -648 616 -810
170 -85 314 -118 511 -118 440 0 818 231 1024 628 82 157 126 352 121 540 -5
194 -37 323 -120 490 -136 269 -379 481 -660 574 -172 57 -384 73 -560 42z
m423 -364 c190 -58 344 -176 450 -345 49 -78 96 -199 109 -278 21 -125 1 -349
-38 -423 -4 -8 -17 -37 -29 -65 -91 -206 -291 -368 -535 -433 -65 -17 -247
-22 -326 -9 -268 44 -512 248 -609 508 -44 121 -60 313 -35 439 29 148 115
302 230 414 56 55 174 136 226 155 19 7 43 17 53 23 11 6 58 19 105 29 120 26
284 20 399 -15z"/>
<path d="M2505 3163 c-86 -13 -142 -30 -214 -65 -201 -96 -334 -311 -334 -538
0 -277 190 -517 463 -586 193 -49 415 12 559 154 148 146 211 342 173 542 -7
41 -22 92 -33 114 -10 22 -19 44 -19 49 0 20 -92 137 -142 182 -52 45 -189
120 -238 129 -14 2 -36 7 -50 10 -30 8 -136 13 -165 9z m177 -380 c106 -58
156 -178 122 -294 -55 -183 -283 -245 -419 -113 -57 56 -77 103 -78 184 -1
195 203 316 375 223z"/>
</g>
</svg>
